<svg xmlns="http://www.w3.org/2000/svg" width="400" height="400" viewBox="0 0 400 400">
  <g id="グループ_47" data-name="グループ 47" transform="translate(-2860 -3758)">
    <g id="グループ_16" data-name="グループ 16" transform="translate(-470 940)">
      <g id="グループ_3" data-name="グループ 3" transform="translate(-132 333)">
        <rect id="長方形_10" data-name="長方形 10" width="400" height="400" transform="translate(3462 2485)"/>
      </g>
    </g>
    <g id="グループ_46" data-name="グループ 46" transform="translate(-477 38)">
      <path id="path32" d="M64.413-287.192a40.07,40.07,0,0,0,8.736-.886,20.655,20.655,0,0,0,7.338-3,15,15,0,0,0,5.064-5.646,19.553,19.553,0,0,0,1.864-9.17c0-7.29-2.053-12.469-6.134-15.612-4.088-3.1-9.538-4.641-16.243-4.641H31.175v38.959Zm-1.721-60.222c5.522,0,10.089-1.311,13.71-3.97,3.584-2.611,5.32-6.935,5.32-12.866a16.818,16.818,0,0,0-1.735-8.123,12.893,12.893,0,0,0-4.8-4.921,19.346,19.346,0,0,0-6.858-2.482,41.587,41.587,0,0,0-8.01-.7H31.175v33.061Zm4.029-57.16a87.1,87.1,0,0,1,18.459,1.794,40.242,40.242,0,0,1,14.288,5.834,27.412,27.412,0,0,1,9.236,10.793c2.155,4.448,3.236,10.014,3.236,16.6q0,10.685-4.847,17.83c-3.259,4.744-8.042,8.639-14.438,11.668,8.709,2.5,15.158,6.9,19.432,13.172,4.3,6.307,6.4,13.86,6.4,22.708q0,10.758-4.117,18.545a36.107,36.107,0,0,1-11.191,12.813,49.324,49.324,0,0,1-16.1,7.338A72.029,72.029,0,0,1,68.6-263.1H.022V-404.574h66.7" transform="translate(3422 4252.652)" fill="#fff"/>
      <path id="path34" d="M99.251-368.652c-3.341-3.7-9.009-5.705-15.917-5.705a24.191,24.191,0,0,0-11.2,2.3,22.609,22.609,0,0,0-7.125,5.646,20.15,20.15,0,0,0-3.771,7.215,31.894,31.894,0,0,0-1.287,6.753h45.779C105.064-359.617,102.609-364.924,99.251-368.652ZM66.923-314.834c4.214,4.115,10.3,6.189,18.194,6.189a25.1,25.1,0,0,0,14.7-4.3c4.075-2.853,6.558-5.909,7.517-9.079h24.779c-3.983,12.329-10.027,21.134-18.268,26.431-8.148,5.324-18.085,7.978-29.662,7.978A58.886,58.886,0,0,1,62.328-291.5,46.4,46.4,0,0,1,45.785-302.51a50.449,50.449,0,0,1-10.4-17.067A62.607,62.607,0,0,1,31.7-341.415a60.1,60.1,0,0,1,3.784-21.429,50.284,50.284,0,0,1,10.73-17.164,50.771,50.771,0,0,1,16.6-11.421A53.206,53.206,0,0,1,84.179-395.6c8.667,0,16.257,1.671,22.762,5.066a45.365,45.365,0,0,1,15.974,13.575,55.544,55.544,0,0,1,9,19.447,72.537,72.537,0,0,1,1.958,22.8H59.956c0,8.1,2.739,15.767,6.967,19.882" transform="translate(3517.968 4279.822)" fill="#fff"/>
      <path id="path44" d="M37.287-402.218v13.957H94.635v-13.957H37.287" transform="translate(3534.88 4259.789)" fill="#fff"/>
    </g>
  </g>
</svg>
