<svg xmlns="http://www.w3.org/2000/svg" width="400" height="400" viewBox="0 0 400 400">
  <g id="グループ_11" data-name="グループ 11" transform="translate(-3330 -2348)">
    <g id="グループ_4" data-name="グループ 4" transform="translate(-132 -137)">
      <g id="グループ_3" data-name="グループ 3">
        <rect id="長方形_10" data-name="長方形 10" width="400" height="400" transform="translate(3462 2485)"/>
      </g>
    </g>
    <g id="g10" transform="translate(3415 3798.33)">
      <g id="g12" transform="translate(0 -1365.33)">
        <path id="path14" d="M230-1250.33a115,115,0,0,0-115-115,115,115,0,0,0-115,115,115.028,115.028,0,0,0,97.031,113.6v-80.361h-29.2v-33.242h29.2v-25.336c0-28.822,17.169-44.742,43.437-44.742a176.846,176.846,0,0,1,25.742,2.246v28.3h-14.5c-14.286,0-18.741,8.865-18.741,17.959v21.572h31.895l-5.1,33.242h-26.8v80.361A115.028,115.028,0,0,0,230-1250.33" transform="translate(0 1365.33)" fill="#fafafa"/>
        <path id="path16" d="M494.6-995.344l5.1-33.242H467.8v-21.572c0-9.094,4.455-17.959,18.741-17.959h14.5v-28.3a176.847,176.847,0,0,0-25.742-2.246c-26.269,0-43.437,15.92-43.437,44.742v25.336h-29.2v33.242h29.2v80.361a115.87,115.87,0,0,0,17.969,1.4,115.87,115.87,0,0,0,17.969-1.4v-80.361h26.8" transform="translate(-334.834 1143.586)"/>
      </g>
    </g>
  </g>
</svg>
