<svg xmlns="http://www.w3.org/2000/svg" width="400" height="400" viewBox="0 0 400 400">
  <g id="グループ_45" data-name="グループ 45" transform="translate(-3330 -3288)">
    <g id="グループ_44" data-name="グループ 44" transform="translate(470)">
      <g id="グループ_16" data-name="グループ 16" transform="translate(-470 470)">
        <g id="グループ_3" data-name="グループ 3" transform="translate(-132 333)">
          <rect id="長方形_10" data-name="長方形 10" width="400" height="400" transform="translate(3462 2485)"/>
        </g>
      </g>
    </g>
    <path id="path108" d="M501.961-290.071a115,115,0,0,0-115,115A115.029,115.029,0,0,0,465.605-65.948c5.747,1.064,7.857-2.5,7.857-5.533,0-2.742-.107-11.8-.156-21.411-31.993,6.957-38.744-13.569-38.744-13.569-5.231-13.293-12.769-16.827-12.769-16.827-10.434-7.138.786-6.991.786-6.991,11.548.809,17.629,11.851,17.629,11.851,10.257,17.581,26.9,12.5,33.465,9.56,1.032-7.431,4.013-12.508,7.3-15.378-25.543-2.908-52.395-12.769-52.395-56.834a44.506,44.506,0,0,1,11.849-30.868c-1.194-2.9-5.13-14.593,1.114-30.434,0,0,9.657-3.091,31.633,11.788a110.232,110.232,0,0,1,28.784-3.87,110.516,110.516,0,0,1,28.809,3.87c21.95-14.879,31.594-11.788,31.594-11.788,6.26,15.841,2.321,27.535,1.127,30.434a44.419,44.419,0,0,1,11.836,30.868c0,44.17-26.9,53.9-52.511,56.743,4.125,3.569,7.8,10.567,7.8,21.3,0,15.385-.133,27.77-.133,31.559,0,3.06,2.07,6.646,7.9,5.517A115.015,115.015,0,0,0,616.96-175.072a115,115,0,0,0-115-115" transform="translate(3028 3665.982)" fill="#fff" fill-rule="evenodd"/>
  </g>
</svg>
