<svg xmlns="http://www.w3.org/2000/svg" width="400" height="400" viewBox="0 0 400 400">
  <g id="グループ_12" data-name="グループ 12" transform="translate(-2860 -2818)">
    <g id="グループ_8" data-name="グループ 8" transform="translate(-602 333)">
      <g id="グループ_3" data-name="グループ 3">
        <rect id="長方形_10" data-name="長方形 10" width="400" height="400" transform="translate(3462 2485)"/>
      </g>
    </g>
    <g id="g10" transform="translate(2945 3574.786)">
      <g id="g12" transform="translate(0 -671.786)">
        <path id="path14" d="M115-671.786c-31.232,0-35.149.132-47.415.692-12.24.558-20.6,2.5-27.915,5.345A56.373,56.373,0,0,0,19.3-652.485,56.371,56.371,0,0,0,6.037-632.116C3.195-624.8,1.251-616.441.692-604.2.132-591.935,0-588.018,0-556.786s.132,35.148.692,47.414c.559,12.24,2.5,20.6,5.345,27.915A56.374,56.374,0,0,0,19.3-461.088,56.372,56.372,0,0,0,39.67-447.823c7.315,2.843,15.675,4.787,27.915,5.345,12.266.56,16.182.692,47.415.692s35.148-.132,47.414-.692c12.24-.558,20.6-2.5,27.915-5.345A56.375,56.375,0,0,0,210.7-461.088a56.375,56.375,0,0,0,13.264-20.369c2.843-7.315,4.787-15.675,5.345-27.915.56-12.266.692-16.182.692-47.414s-.132-35.149-.692-47.415c-.558-12.24-2.5-20.6-5.345-27.915A56.372,56.372,0,0,0,210.7-652.485a56.375,56.375,0,0,0-20.369-13.264c-7.315-2.843-15.675-4.787-27.915-5.345C150.148-671.654,146.232-671.786,115-671.786Zm0,20.721c30.706,0,34.343.117,46.47.671,11.212.511,17.3,2.385,21.354,3.96a35.63,35.63,0,0,1,13.223,8.6,35.631,35.631,0,0,1,8.6,13.223c1.575,4.052,3.448,10.141,3.96,21.354.553,12.126.671,15.764.671,46.47s-.117,34.343-.671,46.47c-.511,11.212-2.385,17.3-3.96,21.354a35.626,35.626,0,0,1-8.6,13.223,35.625,35.625,0,0,1-13.223,8.6c-4.052,1.575-10.141,3.448-21.354,3.96-12.124.553-15.761.671-46.47.671s-34.345-.117-46.47-.671c-11.212-.511-17.3-2.385-21.354-3.96a35.625,35.625,0,0,1-13.223-8.6,35.63,35.63,0,0,1-8.6-13.223c-1.575-4.052-3.448-10.141-3.96-21.354-.553-12.126-.67-15.764-.67-46.47s.117-34.344.67-46.47c.512-11.212,2.385-17.3,3.96-21.354a35.629,35.629,0,0,1,8.6-13.223,35.628,35.628,0,0,1,13.223-8.6c4.052-1.575,10.141-3.448,21.354-3.96,12.126-.553,15.764-.671,46.47-.671" transform="translate(0 671.786)" fill="#fafafa"/>
        <path id="path16" d="M222.462-410.991a38.333,38.333,0,0,1-38.334-38.333,38.333,38.333,0,0,1,38.334-38.334,38.333,38.333,0,0,1,38.333,38.334A38.333,38.333,0,0,1,222.462-410.991Zm0-97.387a59.054,59.054,0,0,0-59.054,59.054,59.054,59.054,0,0,0,59.054,59.054,59.054,59.054,0,0,0,59.054-59.054,59.054,59.054,0,0,0-59.054-59.054" transform="translate(-107.462 564.325)" fill="#fafafa"/>
        <path id="path18" d="M502.487-541.7a13.8,13.8,0,0,1-13.8,13.8,13.8,13.8,0,0,1-13.8-13.8,13.8,13.8,0,0,1,13.8-13.8,13.8,13.8,0,0,1,13.8,13.8" transform="translate(-312.299 595.314)" fill="#fafafa"/>
      </g>
    </g>
  </g>
</svg>
