<svg xmlns="http://www.w3.org/2000/svg" width="400" height="400" viewBox="0 0 400 400">
  <g id="グループ_14" data-name="グループ 14" transform="translate(-3330 -2818)">
    <g id="グループ_13" data-name="グループ 13" transform="translate(470)">
      <g id="グループ_3" data-name="グループ 3" transform="translate(-602 333)">
        <rect id="長方形_10" data-name="長方形 10" width="400" height="400" transform="translate(3462 2485)"/>
      </g>
    </g>
    <path id="path40" d="M758.817,3.987h-34.09V-49.391c0-12.728-.235-29.1-17.727-29.1-17.75,0-20.474,13.864-20.474,28.18v54.3H652.441v-109.76H685.16v15h.457c4.555-8.63,15.683-17.727,32.278-17.727,34.544,0,40.923,22.735,40.923,52.286ZM614-120.778a19.782,19.782,0,0,1-19.784-19.784A19.78,19.78,0,0,1,614-160.334a19.785,19.785,0,0,1,19.768,19.772A19.787,19.787,0,0,1,614-120.778ZM631.045,3.987H596.929v-109.76h34.116ZM775.8-192h-196a16.786,16.786,0,0,0-16.975,16.574V21.4A16.8,16.8,0,0,0,579.8,38h196A16.829,16.829,0,0,0,792.829,21.4V-175.425A16.819,16.819,0,0,0,775.8-192" transform="translate(2852 3095)" fill="#fff"/>
  </g>
</svg>
