<svg xmlns="http://www.w3.org/2000/svg" xmlns:xlink="http://www.w3.org/1999/xlink" width="240" height="160" viewBox="0 0 240 160">
  <defs>
    <clipPath id="clip-カスタムサイズ_8">
      <rect width="240" height="160"/>
    </clipPath>
  </defs>
  <g id="カスタムサイズ_8" data-name="カスタムサイズ – 8" clip-path="url(#clip-カスタムサイズ_8)">
    <rect width="240" height="160" fill="#fafafa"/>
    <path id="パス_13" data-name="パス 13" d="M14.3-14V0H11.7L4.8-8.9V0h-3V-14H4.4l6.9,8.9V-14Zm7.9,7a4.685,4.685,0,0,0,.35,1.82,4.557,4.557,0,0,0,.96,1.46,4.416,4.416,0,0,0,1.43.97,4.436,4.436,0,0,0,1.76.35,4.436,4.436,0,0,0,1.76-.35,4.416,4.416,0,0,0,1.43-.97,4.557,4.557,0,0,0,.96-1.46A4.685,4.685,0,0,0,31.2-7a4.685,4.685,0,0,0-.35-1.82,4.557,4.557,0,0,0-.96-1.46,4.416,4.416,0,0,0-1.43-.97,4.436,4.436,0,0,0-1.76-.35,4.436,4.436,0,0,0-1.76.35,4.416,4.416,0,0,0-1.43.97,4.557,4.557,0,0,0-.96,1.46A4.685,4.685,0,0,0,22.2-7ZM19.1-7a7,7,0,0,1,.58-2.83,7.221,7.221,0,0,1,1.6-2.32,7.649,7.649,0,0,1,2.41-1.57,7.738,7.738,0,0,1,3.01-.58,7.738,7.738,0,0,1,3.01.58,7.649,7.649,0,0,1,2.41,1.57,7.221,7.221,0,0,1,1.6,2.32A7,7,0,0,1,34.3-7a7,7,0,0,1-.58,2.83,7.221,7.221,0,0,1-1.6,2.32A7.65,7.65,0,0,1,29.71-.28,7.738,7.738,0,0,1,26.7.3a7.738,7.738,0,0,1-3.01-.58,7.649,7.649,0,0,1-2.41-1.57,7.221,7.221,0,0,1-1.6-2.32A7,7,0,0,1,19.1-7Zm26.1-7h3V0h-3Zm20.94,0H68.8V0h-3V-9.34L61.3-3.6,56.8-9.3V0h-3V-14h2.7l4.8,6.1ZM79.9-10.5,78.2-5.9h3.4ZM77.2-3.3,76,0H72.8l5.5-14h3.2L87,0H83.8L82.6-3.3Zm25.9-4.3v5.2a7.727,7.727,0,0,1-1.56,1.36,8.409,8.409,0,0,1-1.9.93A7.786,7.786,0,0,1,97,.3a7.738,7.738,0,0,1-3.01-.58,7.649,7.649,0,0,1-2.41-1.57,7.221,7.221,0,0,1-1.6-2.32A7,7,0,0,1,89.4-7a7,7,0,0,1,.58-2.83,7.221,7.221,0,0,1,1.6-2.32,7.649,7.649,0,0,1,2.41-1.57A7.738,7.738,0,0,1,97-14.3a6.785,6.785,0,0,1,2.55.44,8.588,8.588,0,0,1,1.81.96,7.185,7.185,0,0,1,1.44,1.4l-1.9,1.9a5.35,5.35,0,0,0-.98-1,5.807,5.807,0,0,0-1.22-.69A4.276,4.276,0,0,0,97-11.6a4.685,4.685,0,0,0-1.82.35,4.475,4.475,0,0,0-1.46.97,4.475,4.475,0,0,0-.97,1.46A4.685,4.685,0,0,0,92.4-7a4.685,4.685,0,0,0,.35,1.82,4.475,4.475,0,0,0,.97,1.46,4.475,4.475,0,0,0,1.46.97A4.685,4.685,0,0,0,97-2.4a5.145,5.145,0,0,0,1.36-.16,4.558,4.558,0,0,0,.98-.38,2.812,2.812,0,0,0,.76-.56V-5.4H97.6V-7.6Zm15.8,4.9V0H108.4V-14h10.3v2.7h-7.3v2.8h5.7v2.7h-5.7v3.1Z" transform="translate(60 87)" fill="#cecece"/>
  </g>
</svg>
