<svg xmlns="http://www.w3.org/2000/svg" width="400" height="400" viewBox="0 0 400 400">
  <g id="グループ_10" data-name="グループ 10" transform="translate(-2860 -2348)">
    <g id="グループ_2" data-name="グループ 2">
      <rect id="長方形_10" data-name="長方形 10" width="400" height="400" transform="translate(2860 2348)"/>
      <g id="Twitter_Social_Icon_Circle_Color" transform="translate(2855 2340)">
        <g id="Logo__x2014__FIXED" transform="translate(89.7 114.5)">
          <path id="パス_54" data-name="パス 54" d="M161.863,301.516c86.85,0,134.338-71.967,134.338-134.338,0-2.056,0-4.112-.1-6.071a96.73,96.73,0,0,0,23.6-24.479,95.829,95.829,0,0,1-27.122,7.442,47.188,47.188,0,0,0,20.758-26.143,95.61,95.61,0,0,1-29.962,11.456,47.241,47.241,0,0,0-81.66,32.312,43.267,43.267,0,0,0,1.273,10.771,133.94,133.94,0,0,1-97.327-49.349,47.191,47.191,0,0,0,14.687,62.959A46.379,46.379,0,0,1,99,180.2v.588A47.266,47.266,0,0,0,136.895,227.1a47.068,47.068,0,0,1-12.435,1.665,45.075,45.075,0,0,1-8.91-.881,47.143,47.143,0,0,0,44.061,32.8,94.91,94.91,0,0,1-58.651,20.17,85.846,85.846,0,0,1-11.26-.685,131.544,131.544,0,0,0,72.163,21.345" transform="translate(-89.7 -114.5)" fill="#fafafa"/>
        </g>
      </g>
    </g>
  </g>
</svg>
